<?xml version="1.0" encoding="utf-8"?>
<!-- Generator: Adobe Adobe Illustrator 24.2.0, SVG Export Plug-In . SVG Version: 6.00 Build 0)  -->
<svg version="1.1" id="Calque_1" xmlns="http://www.w3.org/2000/svg"
    xmlns:xlink="http://www.w3.org/1999/xlink" x="0px" y="0px"
    width="781px" height="792px" viewBox="0 0 781 792" style="enable-background:new 0 0 781 792;"
    xml:space="preserve">
<style type="text/css">
.st0{fill:none;stroke:#E3BA17;stroke-width:12;stroke-miterlimit:10;}
.st1{fill:#E3BA17;}
</style>
<g>
<ellipse class="st0" cx="392.91" cy="384" rx="322.79" ry="336.5"/>
<path class="st1" d="M483.76,566.59c50.71-25.12,100.6-46.84,132.6-91.01c37.59-51.87,45.33-136.65,10.67-200.63
c-19.71-36.38-48.14-60.08-80.41-73.55c-0.6,2.11-1.29,4.18-1.88,6.31c-25.59,92.28-41.77,188.8-53.12,286.65
C488.84,518.38,486.25,542.47,483.76,566.59z"/>
<path d="M294.47,566.59c-48.12-29.78-95.74-56.1-123.45-103.08c-32.54-55.18-32.26-140.31,8.26-200.74
c23.04-34.37,53.58-55.28,86.97-65.66c0.4,2.16,0.89,4.28,1.28,6.46c16.79,94.28,23.81,191.9,25.91,290.38
C293.96,518.11,294.27,542.34,294.47,566.59z"/>
<path class="st1" d="M327.56,578.93l1.12-44.21c0.34-13.25,11.35-23.72,24.6-23.38l81.59,2.07c13.25,0.34,23.72,11.35,23.38,24.6
l-1.12,44.21c-0.34,13.25-11.35,23.72-24.6,23.38l-81.59-2.07C337.7,603.19,327.23,592.18,327.56,578.93z"/>
<path d="M318.54,453.2l1.12-44.21c0.34-13.25,11.35-23.72,24.6-23.38l111.99,2.84c13.25,0.34,23.72,11.35,23.38,24.6l-1.12,44.21
c-0.34,13.25-11.35,23.72-24.6,23.38l-111.99-2.84C328.68,477.46,318.21,466.45,318.54,453.2z"/>
<path class="st1" d="M306.83,334.41l1.12-44.21c0.34-13.25,11.35-23.72,24.6-23.38l135.41,3.43c13.25,0.34,23.72,11.35,23.38,24.6
l-1.12,44.21c-0.34,13.25-11.35,23.72-24.6,23.38l-135.41-3.43C316.96,358.67,306.5,347.66,306.83,334.41z"/>
<g>
<path d="M312.06,210.69l1.12-44.21c0.34-13.25,11.35-23.72,24.6-23.38l131.92,3.34c13.25,0.34,23.72,11.35,23.38,24.6l-1.12,44.21
c-0.34,13.25-11.35,23.72-24.6,23.38l-131.92-3.34C322.19,234.95,311.72,223.94,312.06,210.69z"/>
<ellipse transform="matrix(1 -4.024388e-03 4.024388e-03 1 -0.6744 1.6215)" cx="402.57" cy="168.4" rx="89.65" ry="52.34"/>
</g>
</g>
</svg>